Coordinates
version=1
nRows=17
nColumns=24
inDegrees=yes

Units are S.I. units (second, meters, Newtons, ...)
Angles are in degrees.

endheader
time	pelvis_tilt	pelvis_list	pelvis_rotation	pelvis_tx	pelvis_ty	pelvis_tz	hip_flexion_r	hip_adduction_r	hip_rotation_r	knee_angle_r	ankle_angle_r	subtalar_angle_r	mtp_angle_r	hip_flexion_l	hip_adduction_l	hip_rotation_l	knee_angle_l	ankle_angle_l	subtalar_angle_l	mtp_angle_l	lumbar_extension	lumbar_bending	lumbar_rotation
      5.01500000	    -10.37248205	      1.50097556	     -6.32674488	     -1.19068991	     -0.02961276	     -0.31584255	     -4.94585109	      2.32662795	     11.37384260	    -15.35820333	      8.80581617	      4.43323166	     18.81697637	     34.49106499	     -0.79763562	     -2.82080095	     -9.28583252	     -0.58279556	      1.11290744	      9.27434353	      8.27493227	     -0.50420027	     15.00654516
      5.02000000	    -10.44644478	      1.59055320	     -6.36126675	     -1.18412049	     -0.03050167	     -0.31644672	     -4.97926580	      2.12437217	     11.09276829	    -15.90279653	      8.59829254	      5.05629129	     19.26350639	     34.52664294	     -0.66994331	     -2.77782822	     -9.93434023	     -0.96600473	      0.71991193	      9.25319275	      8.51131270	     -0.59297783	     15.02697029
      5.02500000	    -10.52407183	      1.70434754	     -6.39221225	     -1.17755177	     -0.03132071	     -0.31704799	     -4.98876853	      1.88908926	     10.77063871	    -16.46298479	      8.34958309	      5.73489644	     19.73674932	     34.57066437	     -0.51701678	     -2.73820656	    -10.56638754	     -1.44302814	      0.32131936	      9.24661023	      8.75453953	     -0.71198711	     15.05016934
      5.03000000	    -10.60890384	      1.85999992	     -6.39145018	     -1.17098821	     -0.03207148	     -0.31769331	     -4.96235246	      1.60353898	     10.39243165	    -17.05631627	      8.06406563	      6.46197072	     20.25493880	     34.63214355	     -0.30324178	     -2.69683783	    -11.17494819	     -2.00566533	     -0.08219566	      9.25623733	      9.00772785	     -0.88479686	     15.04534129
      5.03500000	    -10.69730044	      2.05281198	     -6.37148092	     -1.16446726	     -0.03272714	     -0.31838636	     -4.89407650	      1.26875077	      9.95456660	    -17.69210587	      7.73384510	      7.25813891	     20.83832492	     34.70584863	     -0.03714501	     -2.63014609	    -11.75953125	     -2.63816926	     -0.49677236	      9.28176188	      9.25989825	     -1.09699058	     15.02249394
      5.04000000	    -10.76314730	      2.23200354	     -6.31650835	     -1.15809046	     -0.03326422	     -0.31916542	     -4.80738135	      0.93303057	      9.43584798	    -18.36930213	      7.30044849	      8.15799217	     21.65812241	     34.77728084	      0.25321414	     -2.44395995	    -12.34403464	     -3.35113893	     -1.00592109	      9.36489078	      9.45352591	     -1.30189131	     14.94412691
      5.04500000	    -10.85750994	      2.51621410	     -6.25240068	     -1.15162381	     -0.03369784	     -0.31989309	     -4.66056084	      0.48639653	      8.89505713	    -19.07852948	      6.81642896	      9.03339799	     22.38998465	     34.87976294	      0.64250984	     -2.34167940	    -12.91851949	     -4.04523100	     -1.38994954	      9.39204174	      9.71274098	     -1.62738742	     14.91060586
      5.05000000	    -10.94471121	      2.82001352	     -6.15265673	     -1.14520723	     -0.03401774	     -0.32063906	     -4.48877742	      0.00720128	      8.25943303	    -19.81915784	      6.26249728	      9.98838192	     23.18400651	     34.99307862	      1.08142640	     -2.13415598	    -13.52462258	     -4.74525964	     -1.78087679	      9.37033985	      9.95486661	     -1.98978986	     14.84125349
      5.05500000	    -11.03226635	      3.16515721	     -6.03570006	     -1.13878996	     -0.03423540	     -0.32138563	     -4.27261898	     -0.52525976	      7.58262666	    -20.62181859	      5.63586347	     10.99818377	     23.99095434	     35.10434023	      1.57891753	     -1.87444862	    -14.13438411	     -5.39503829	     -2.13111772	      9.27392700	     10.20197572	     -2.40150326	     14.74899658
      5.06000000	    -11.08988780	      3.52219221	     -5.83665277	     -1.13236678	     -0.03431650	     -0.32220745	     -4.10165202	     -1.07669056	      6.86489454	    -21.35257600	      4.67127660	     11.82364471	     25.41884637	     35.18281415	      2.16670667	     -1.37500309	    -14.75950503	     -6.08954127	     -2.66331843	      8.93462714	     10.40947275	     -2.85527922	     14.61025753
      5.06500000	    -11.17508916	      3.90612597	     -5.71910646	     -1.12593066	     -0.03436738	     -0.32284593	     -3.80424410	     -1.67453867	      6.09766814	    -22.28643613	      3.98628544	     13.04655533	     25.97683955	     35.31137222	      2.69421705	     -1.21007732	    -15.44313449	     -6.51444679	     -2.68340821	      8.78025481	     10.66257490	     -3.32227821	     14.53582175
      5.07000000	    -11.22401794	      4.27277565	     -5.48695136	     -1.11952430	     -0.03428621	     -0.32372073	     -3.56039230	     -2.27710057	      5.21551399	    -23.13461870	      2.87533773	     14.06945350	     27.39203629	     35.37024698	      3.34500564	     -0.54423092	    -16.09881970	     -7.05028170	     -3.22846046	      7.98868730	     10.85089489	     -3.78966009	     14.40885135
      5.07500000	    -11.27973694	      4.63929079	     -5.30107108	     -1.11307051	     -0.03417909	     -0.32446768	     -3.24723159	     -2.89908253	      4.30850603	    -24.09907099	      1.79239426	     15.26848639	     28.46765399	     35.43079450	      3.94398704	     -0.08606331	    -16.76644318	     -7.35639680	     -3.42940708	      7.35781664	     11.05875577	     -4.25367260	     14.29490105
      5.08000000	    -11.31425663	      4.97950210	     -5.10040365	     -1.10656066	     -0.03401686	     -0.32510092	     -2.93744249	     -3.49840779	      3.40116070	    -25.13371531	      0.74901960	     16.57122318	     28.93844150	     35.46391993	      4.49657867	      0.22349954	    -17.43084964	     -7.58167206	     -3.34329848	      7.15838924	     11.25213163	     -4.71248108	     14.17686431
      5.08500000	    -11.33235023	      5.31984014	     -4.86885269	     -1.10002914	     -0.03375706	     -0.32595657	     -2.62998429	     -4.13434829	      2.42826351	    -26.10848029	     -0.80935936	     17.61534433	     30.45289543	     35.39901145	      5.15079477	      0.95404490	    -17.99898243	     -7.79335230	     -3.85629343	      6.05864873	     11.41778637	     -5.15362970	     14.03781831
      5.09000000	    -11.35828640	      5.61526682	     -4.66064017	     -1.09348699	     -0.03351207	     -0.32670281	     -2.27318985	     -4.73755453	      1.47631898	    -27.17342275	     -2.33736597	     18.80256861	     31.49858542	     35.34566555	      5.70378897	      1.42954315	    -18.58210885	     -7.81621948	     -3.96368697	      5.39775681	     11.59635432	     -5.54864769	     13.92527992
      5.09500000	    -11.37325740	      5.84729758	     -4.46653729	     -1.08701971	     -0.03323226	     -0.32744605	     -1.88879656	     -5.28606575	      0.57845192	    -28.30914665	     -3.89887588	     20.01940243	     32.13293417	     35.24465288	      6.18780631	      1.91653018	    -19.10166766	     -7.85342790	     -4.12816184	      5.03371399	     11.74216489	     -5.86940283	     13.83744587
